<mxfile host="app.diagrams.net" modified="2023-10-20T07:31:26.289Z" agent="Mozilla/5.0 (Windows NT 10.0; Win64; x64) AppleWebKit/537.36 (KHTML, like Gecko) Chrome/118.0.0.0 Safari/537.36" etag="dydunpG_12e-zhayVgYP" version="22.0.5" type="device">
  <diagram id="C5RBs43oDa-KdzZeNtuy" name="Page-1">
    <mxGraphModel dx="1518" dy="684" grid="1" gridSize="10" guides="1" tooltips="1" connect="1" arrows="1" fold="1" page="1" pageScale="1" pageWidth="827" pageHeight="1169" math="0" shadow="0">
      <root>
        <mxCell id="WIyWlLk6GJQsqaUBKTNV-0" />
        <mxCell id="WIyWlLk6GJQsqaUBKTNV-1" parent="WIyWlLk6GJQsqaUBKTNV-0" />
        <mxCell id="wG9dOWtAZ846Ad0GeSLi-17" value="" style="rounded=0;whiteSpace=wrap;html=1;" vertex="1" parent="WIyWlLk6GJQsqaUBKTNV-1">
          <mxGeometry x="138" y="230" width="380" height="136" as="geometry" />
        </mxCell>
        <mxCell id="wG9dOWtAZ846Ad0GeSLi-6" value="&lt;font style=&quot;font-size: 12px;&quot;&gt;&lt;b&gt;image_proc_module.wasm&lt;/b&gt;&lt;/font&gt;" style="rounded=1;whiteSpace=wrap;html=1;fillColor=#6053EF;strokeColor=#C2B0FF;" vertex="1" parent="WIyWlLk6GJQsqaUBKTNV-1">
          <mxGeometry x="414" y="121" width="162.46" height="64" as="geometry" />
        </mxCell>
        <mxCell id="wG9dOWtAZ846Ad0GeSLi-1" value="handler.rs" style="shape=folder;fontStyle=1;tabWidth=110;tabHeight=30;tabPosition=left;html=1;boundedLbl=1;labelInHeader=1;container=1;collapsible=0;whiteSpace=wrap;" vertex="1" parent="WIyWlLk6GJQsqaUBKTNV-1">
          <mxGeometry x="348" y="259" width="150" height="65" as="geometry" />
        </mxCell>
        <mxCell id="wG9dOWtAZ846Ad0GeSLi-2" value="" style="html=1;strokeColor=none;resizeWidth=1;resizeHeight=1;fillColor=none;part=1;connectable=0;allowArrows=0;deletable=0;whiteSpace=wrap;" vertex="1" parent="wG9dOWtAZ846Ad0GeSLi-1">
          <mxGeometry width="150" height="45.5" relative="1" as="geometry">
            <mxPoint y="30" as="offset" />
          </mxGeometry>
        </mxCell>
        <mxCell id="wG9dOWtAZ846Ad0GeSLi-4" value="image_proc_module.rs" style="shape=folder;fontStyle=1;tabWidth=137;tabHeight=30;tabPosition=left;html=1;boundedLbl=1;labelInHeader=1;container=1;collapsible=0;whiteSpace=wrap;" vertex="1" parent="WIyWlLk6GJQsqaUBKTNV-1">
          <mxGeometry x="421" y="10" width="150" height="59" as="geometry" />
        </mxCell>
        <mxCell id="wG9dOWtAZ846Ad0GeSLi-5" value="" style="html=1;strokeColor=none;resizeWidth=1;resizeHeight=1;fillColor=none;part=1;connectable=0;allowArrows=0;deletable=0;whiteSpace=wrap;" vertex="1" parent="wG9dOWtAZ846Ad0GeSLi-4">
          <mxGeometry width="150" height="41.300000000000004" relative="1" as="geometry">
            <mxPoint y="30" as="offset" />
          </mxGeometry>
        </mxCell>
        <mxCell id="wG9dOWtAZ846Ad0GeSLi-7" value="&lt;b&gt;Use&lt;/b&gt;" style="endArrow=open;endSize=12;dashed=1;html=1;rounded=0;exitX=0.949;exitY=0.436;exitDx=0;exitDy=0;exitPerimeter=0;entryX=0.5;entryY=1;entryDx=0;entryDy=0;" edge="1" parent="WIyWlLk6GJQsqaUBKTNV-1" source="wG9dOWtAZ846Ad0GeSLi-1" target="wG9dOWtAZ846Ad0GeSLi-6">
          <mxGeometry x="0.3981" width="160" relative="1" as="geometry">
            <mxPoint x="478" y="288" as="sourcePoint" />
            <mxPoint x="498" y="155" as="targetPoint" />
            <mxPoint as="offset" />
          </mxGeometry>
        </mxCell>
        <mxCell id="wG9dOWtAZ846Ad0GeSLi-8" value="" style="endArrow=classic;html=1;rounded=0;exitX=0.5;exitY=1;exitDx=0;exitDy=0;exitPerimeter=0;" edge="1" parent="WIyWlLk6GJQsqaUBKTNV-1" source="wG9dOWtAZ846Ad0GeSLi-4" target="wG9dOWtAZ846Ad0GeSLi-6">
          <mxGeometry width="50" height="50" relative="1" as="geometry">
            <mxPoint x="347" y="276" as="sourcePoint" />
            <mxPoint x="397" y="226" as="targetPoint" />
          </mxGeometry>
        </mxCell>
        <mxCell id="wG9dOWtAZ846Ad0GeSLi-9" value="&lt;b&gt;Compile&lt;/b&gt;" style="text;html=1;align=center;verticalAlign=middle;resizable=0;points=[];autosize=1;strokeColor=none;fillColor=none;" vertex="1" parent="WIyWlLk6GJQsqaUBKTNV-1">
          <mxGeometry x="488" y="76" width="70" height="30" as="geometry" />
        </mxCell>
        <mxCell id="wG9dOWtAZ846Ad0GeSLi-11" value="main.rs" style="shape=folder;fontStyle=1;tabWidth=110;tabHeight=30;tabPosition=left;html=1;boundedLbl=1;labelInHeader=1;container=1;collapsible=0;whiteSpace=wrap;" vertex="1" parent="WIyWlLk6GJQsqaUBKTNV-1">
          <mxGeometry x="151" y="259" width="150" height="65" as="geometry" />
        </mxCell>
        <mxCell id="wG9dOWtAZ846Ad0GeSLi-12" value="" style="html=1;strokeColor=none;resizeWidth=1;resizeHeight=1;fillColor=none;part=1;connectable=0;allowArrows=0;deletable=0;whiteSpace=wrap;" vertex="1" parent="wG9dOWtAZ846Ad0GeSLi-11">
          <mxGeometry width="150" height="45.5" relative="1" as="geometry">
            <mxPoint y="30" as="offset" />
          </mxGeometry>
        </mxCell>
        <mxCell id="wG9dOWtAZ846Ad0GeSLi-14" value="" style="endArrow=classic;html=1;rounded=0;exitX=0;exitY=0;exitDx=150;exitDy=47.5;exitPerimeter=0;entryX=0;entryY=0;entryDx=0;entryDy=47.5;entryPerimeter=0;" edge="1" parent="WIyWlLk6GJQsqaUBKTNV-1" source="wG9dOWtAZ846Ad0GeSLi-11" target="wG9dOWtAZ846Ad0GeSLi-1">
          <mxGeometry width="50" height="50" relative="1" as="geometry">
            <mxPoint x="298" y="226" as="sourcePoint" />
            <mxPoint x="348" y="176" as="targetPoint" />
          </mxGeometry>
        </mxCell>
        <mxCell id="wG9dOWtAZ846Ad0GeSLi-18" value="&lt;b&gt;Actix-Web&lt;/b&gt;" style="text;html=1;align=center;verticalAlign=middle;resizable=0;points=[];autosize=1;strokeColor=none;fillColor=none;" vertex="1" parent="WIyWlLk6GJQsqaUBKTNV-1">
          <mxGeometry x="130" y="223" width="80" height="30" as="geometry" />
        </mxCell>
        <mxCell id="wG9dOWtAZ846Ad0GeSLi-19" value="image" style="shape=folder;fontStyle=1;tabWidth=137;tabHeight=30;tabPosition=left;html=1;boundedLbl=1;labelInHeader=1;container=1;collapsible=0;whiteSpace=wrap;" vertex="1" parent="WIyWlLk6GJQsqaUBKTNV-1">
          <mxGeometry x="647" y="10" width="150" height="59" as="geometry" />
        </mxCell>
        <mxCell id="wG9dOWtAZ846Ad0GeSLi-20" value="&amp;lt;&amp;lt;crate&amp;gt;&amp;gt;" style="html=1;strokeColor=none;resizeWidth=1;resizeHeight=1;fillColor=none;part=1;connectable=0;allowArrows=0;deletable=0;whiteSpace=wrap;" vertex="1" parent="wG9dOWtAZ846Ad0GeSLi-19">
          <mxGeometry width="150" height="51.3" relative="1" as="geometry">
            <mxPoint y="20" as="offset" />
          </mxGeometry>
        </mxCell>
        <mxCell id="wG9dOWtAZ846Ad0GeSLi-21" value="" style="endArrow=classic;html=1;rounded=0;exitX=0;exitY=0;exitDx=150;exitDy=44.5;exitPerimeter=0;entryX=0;entryY=0;entryDx=0;entryDy=44.5;entryPerimeter=0;" edge="1" parent="WIyWlLk6GJQsqaUBKTNV-1" source="wG9dOWtAZ846Ad0GeSLi-4" target="wG9dOWtAZ846Ad0GeSLi-19">
          <mxGeometry width="50" height="50" relative="1" as="geometry">
            <mxPoint x="627" y="236" as="sourcePoint" />
            <mxPoint x="677" y="186" as="targetPoint" />
          </mxGeometry>
        </mxCell>
        <mxCell id="wG9dOWtAZ846Ad0GeSLi-22" value="&lt;b&gt;import&lt;/b&gt;" style="text;html=1;align=center;verticalAlign=middle;resizable=0;points=[];autosize=1;strokeColor=none;fillColor=none;" vertex="1" parent="WIyWlLk6GJQsqaUBKTNV-1">
          <mxGeometry x="576" y="32" width="60" height="30" as="geometry" />
        </mxCell>
        <mxCell id="wG9dOWtAZ846Ad0GeSLi-29" value="wasmtime-wasi" style="shape=folder;fontStyle=1;tabWidth=137;tabHeight=30;tabPosition=left;html=1;boundedLbl=1;labelInHeader=1;container=1;collapsible=0;whiteSpace=wrap;" vertex="1" parent="WIyWlLk6GJQsqaUBKTNV-1">
          <mxGeometry x="590" y="262" width="150" height="59" as="geometry" />
        </mxCell>
        <mxCell id="wG9dOWtAZ846Ad0GeSLi-30" value="&amp;lt;&amp;lt;crate&amp;gt;&amp;gt;" style="html=1;strokeColor=none;resizeWidth=1;resizeHeight=1;fillColor=none;part=1;connectable=0;allowArrows=0;deletable=0;whiteSpace=wrap;" vertex="1" parent="wG9dOWtAZ846Ad0GeSLi-29">
          <mxGeometry width="150" height="51.3" relative="1" as="geometry">
            <mxPoint y="20" as="offset" />
          </mxGeometry>
        </mxCell>
        <mxCell id="wG9dOWtAZ846Ad0GeSLi-31" value="" style="endArrow=classic;html=1;rounded=0;exitX=0;exitY=0;exitDx=150;exitDy=47.5;exitPerimeter=0;entryX=0;entryY=0;entryDx=0;entryDy=44.5;entryPerimeter=0;" edge="1" parent="WIyWlLk6GJQsqaUBKTNV-1" target="wG9dOWtAZ846Ad0GeSLi-29" source="wG9dOWtAZ846Ad0GeSLi-1">
          <mxGeometry width="50" height="50" relative="1" as="geometry">
            <mxPoint x="532" y="75" as="sourcePoint" />
            <mxPoint x="638" y="206" as="targetPoint" />
          </mxGeometry>
        </mxCell>
        <mxCell id="wG9dOWtAZ846Ad0GeSLi-32" value="&lt;b&gt;import&lt;/b&gt;" style="text;html=1;align=center;verticalAlign=middle;resizable=0;points=[];autosize=1;strokeColor=none;fillColor=none;" vertex="1" parent="WIyWlLk6GJQsqaUBKTNV-1">
          <mxGeometry x="517.46" y="284" width="60" height="30" as="geometry" />
        </mxCell>
        <mxCell id="wG9dOWtAZ846Ad0GeSLi-36" value="" style="endArrow=classic;html=1;rounded=0;entryX=0;entryY=0;entryDx=55;entryDy=0;entryPerimeter=0;" edge="1" parent="WIyWlLk6GJQsqaUBKTNV-1">
          <mxGeometry width="50" height="50" relative="1" as="geometry">
            <mxPoint x="205" y="66" as="sourcePoint" />
            <mxPoint x="206" y="260" as="targetPoint" />
          </mxGeometry>
        </mxCell>
        <mxCell id="wG9dOWtAZ846Ad0GeSLi-39" value="&lt;b style=&quot;border-color: var(--border-color); font-size: 12px; background-color: rgb(251, 251, 251);&quot;&gt;/edit?resize=0.5&amp;amp;...&lt;/b&gt;" style="edgeLabel;html=1;align=center;verticalAlign=middle;resizable=0;points=[];" vertex="1" connectable="0" parent="wG9dOWtAZ846Ad0GeSLi-36">
          <mxGeometry x="0.2501" y="-2" relative="1" as="geometry">
            <mxPoint y="21" as="offset" />
          </mxGeometry>
        </mxCell>
        <mxCell id="wG9dOWtAZ846Ad0GeSLi-41" value="" style="endArrow=classic;html=1;rounded=0;exitX=0.777;exitY=0.472;exitDx=0;exitDy=0;exitPerimeter=0;" edge="1" parent="WIyWlLk6GJQsqaUBKTNV-1" source="wG9dOWtAZ846Ad0GeSLi-11">
          <mxGeometry width="50" height="50" relative="1" as="geometry">
            <mxPoint x="215.25" y="71.99999999999989" as="sourcePoint" />
            <mxPoint x="268" y="66" as="targetPoint" />
          </mxGeometry>
        </mxCell>
        <mxCell id="wG9dOWtAZ846Ad0GeSLi-42" value="&lt;b style=&quot;border-color: var(--border-color); font-size: 12px; background-color: rgb(251, 251, 251);&quot;&gt;/img/modified/3.jpg&lt;br&gt;&lt;/b&gt;" style="edgeLabel;html=1;align=center;verticalAlign=middle;resizable=0;points=[];" vertex="1" connectable="0" parent="wG9dOWtAZ846Ad0GeSLi-41">
          <mxGeometry x="0.2501" y="-2" relative="1" as="geometry">
            <mxPoint y="-63" as="offset" />
          </mxGeometry>
        </mxCell>
      </root>
    </mxGraphModel>
  </diagram>
</mxfile>
